<?xml version="1.0" standalone="no"?>
<!DOCTYPE svg PUBLIC "-//W3C//DTD SVG 20010904//EN"
 "http://www.w3.org/TR/2001/REC-SVG-20010904/DTD/svg10.dtd">
<svg version="1.0" xmlns="http://www.w3.org/2000/svg"
 width="183.000000pt" height="275.000000pt" viewBox="0 0 183.000000 275.000000"
 preserveAspectRatio="xMidYMid meet">

<g transform="translate(0.000000,275.000000) scale(0.100000,-0.100000)"
fill="#000000" stroke="none">
<path d="M834 2602 c3 -6 -2 -8 -11 -6 -29 7 -94 -58 -72 -72 7 -4 10 -3 5 4
-3 6 -2 13 3 16 18 12 5 -24 -19 -49 -13 -14 -21 -28 -17 -31 4 -4 -1 -20 -10
-35 -12 -21 -20 -25 -29 -18 -24 20 -36 -27 -29 -108 7 -79 22 -126 37 -117 5
3 12 -4 15 -15 4 -15 11 -20 23 -16 27 8 34 -12 18 -48 -21 -46 -16 -168 7
-204 10 -15 19 -43 20 -63 1 -19 6 -74 10 -123 7 -77 6 -87 -8 -82 -19 8 -29
46 -22 83 l6 27 -21 -27 c-13 -17 -31 -28 -46 -28 -24 0 -24 0 -8 -39 15 -37
14 -41 -4 -59 -14 -14 -24 -17 -36 -10 -9 5 -14 13 -11 17 2 5 -3 15 -13 22
-15 13 -16 12 -3 -3 7 -10 9 -18 4 -18 -5 0 -9 -9 -9 -20 1 -10 -2 -19 -6 -20
-39 -2 -58 2 -58 11 0 7 10 9 27 4 24 -6 25 -5 12 11 -8 9 -14 28 -14 42 0 25
-1 25 -69 23 -50 -2 -74 -7 -88 -21 -11 -10 -26 -16 -34 -13 -8 3 -14 0 -14
-7 0 -6 -5 -8 -11 -5 -5 4 -20 4 -33 1 -17 -4 -22 -13 -23 -40 -1 -34 -21 -66
-41 -66 -19 0 -52 -49 -71 -105 -44 -131 -49 -155 -35 -155 7 0 15 -4 18 -9 4
-5 -3 -7 -14 -4 -14 4 -20 0 -20 -11 0 -9 -4 -16 -9 -16 -5 0 -9 -15 -9 -32 0
-18 -10 -64 -22 -103 -20 -63 -21 -73 -9 -103 l14 -33 2 56 c1 31 9 67 17 80
27 41 117 45 158 8 9 -8 22 -13 29 -11 8 3 -2 18 -24 38 -34 30 -36 35 -22 49
13 13 18 12 47 -15 69 -62 88 -77 88 -68 0 16 -94 109 -110 109 -8 0 -15 7
-15 15 0 15 19 17 70 8 14 -2 20 3 20 17 1 59 93 -11 156 -120 45 -77 57 -80
274 -69 306 14 311 14 390 -26 41 -21 74 -44 80 -58 9 -20 14 -21 60 -16 72 9
83 23 57 68 l-21 36 24 16 c67 44 214 22 275 -41 31 -32 35 -42 33 -83 -1 -45
-1 -46 12 -22 16 28 11 182 -6 188 -5 2 -7 8 -3 13 3 5 0 10 -5 10 -26 3 -30
4 -36 11 -4 3 -1 17 6 29 l12 23 8 -22 c5 -12 14 -22 21 -22 21 0 11 163 -16
270 -34 133 -136 230 -243 230 -24 0 -60 7 -81 16 -20 9 -66 25 -102 36 -36
11 -71 29 -78 39 -15 21 -46 26 -39 7 7 -21 -31 -66 -80 -95 -37 -21 -62 -28
-127 -31 -93 -5 -110 4 -104 60 3 28 7 33 32 35 35 2 45 15 38 49 -3 20 2 26
29 38 39 16 49 56 14 56 -27 0 -55 30 -55 59 0 12 -5 32 -11 43 -8 15 -8 19 0
14 6 -4 16 4 23 18 8 19 19 26 42 27 l31 2 -29 4 c-37 6 -79 -12 -91 -39 -6
-12 -16 -23 -22 -26 -10 -3 -10 4 -2 27 7 20 23 37 45 47 25 12 34 23 34 40 0
13 5 24 10 24 6 0 3 11 -5 24 -12 19 -14 30 -6 44 13 24 6 82 -11 94 -9 7 -3
8 16 5 18 -3 35 1 44 10 9 8 18 11 24 5 5 -5 25 -6 46 -2 37 6 118 -16 148
-41 8 -6 15 -28 15 -48 l1 -36 7 30 c6 24 3 35 -16 56 -13 14 -23 32 -23 40 0
12 -2 12 -10 -1 -8 -13 -10 -13 -10 1 0 9 -7 20 -16 23 -31 12 -136 6 -170
-10 -32 -15 -38 -15 -93 2 -50 16 -58 22 -50 36 5 9 9 30 9 47 0 16 5 33 10
36 19 12 107 -6 129 -26 14 -13 21 -15 21 -7 1 8 5 7 14 -4 20 -27 30 -21 12
7 -9 13 -16 29 -16 35 0 21 22 -3 41 -44 23 -50 25 -34 3 19 -13 33 -14 40 -1
52 12 12 16 12 28 0 8 -7 20 -12 27 -9 7 2 20 -16 32 -45 11 -26 25 -57 32
-68 6 -11 18 -32 25 -46 7 -14 21 -33 32 -43 18 -16 19 -16 26 11 31 121 25
186 -24 253 -14 19 -26 38 -26 42 0 3 -4 10 -9 15 -5 5 -6 3 -2 -4 4 -7 3 -13
-2 -13 -5 0 -12 8 -14 18 -8 29 -76 56 -148 59 -36 2 -91 5 -124 9 -37 3 -56
2 -52 -4z m-140 -299 c4 -4 15 -8 24 -8 57 -4 65 -6 58 -12 -4 -4 -25 -13 -47
-19 -34 -10 -38 -10 -28 2 11 14 10 15 -13 18 -14 1 -24 26 -10 26 5 0 12 -3
16 -7z m46 -61 c0 -5 -7 -17 -15 -28 -15 -19 -20 -8 -9 20 6 17 24 22 24 8z
m97 -4 c-2 -7 -11 -11 -18 -9 -8 2 -20 4 -26 4 -28 1 -11 17 18 17 20 0 29 -4
26 -12z m-150 -30 c-3 -8 -6 -5 -6 6 -1 11 2 17 5 13 3 -3 4 -12 1 -19z m149
-46 c-3 -5 -16 -12 -28 -15 -22 -6 -22 -6 2 13 25 19 37 20 26 2z m5 -82 c24
-13 25 -39 2 -56 -24 -18 -31 -17 -43 6 -8 14 -8 26 0 40 12 23 15 24 41 10z
m-296 -452 c3 -3 -7 -10 -24 -16 -26 -9 -29 -8 -28 9 1 14 8 18 24 16 12 -2
25 -6 28 -9z m694 -5 c-13 -15 -12 -15 7 -5 16 8 28 8 46 0 24 -12 24 -12 5
-31 -19 -19 -21 -19 -33 -2 -9 12 -20 16 -38 11 -29 -7 -34 5 -10 28 21 21 40
21 23 -1z m124 -10 c9 -8 81 -8 94 0 6 4 17 -1 24 -10 12 -15 12 -16 -3 -10
-10 3 -20 2 -23 -3 -4 -6 -11 -10 -16 -10 -6 0 -7 5 -4 10 3 6 1 10 -5 10 -6
0 -13 -6 -15 -13 -4 -8 -25 -12 -60 -12 -30 0 -55 2 -55 3 0 5 44 41 51 42 3
0 9 -3 12 -7z m-830 -33 c4 -4 -13 -8 -38 -8 -35 -2 -45 1 -45 13 0 13 7 15
38 9 20 -3 41 -10 45 -14z m144 -82 c-3 -7 -5 -2 -5 12 0 14 2 19 5 13 2 -7 2
-19 0 -25z m-267 -34 c0 -8 -19 -13 -24 -6 -3 5 1 9 9 9 8 0 15 -2 15 -3z m37
-26 c-3 -7 -5 -2 -5 12 0 14 2 19 5 13 2 -7 2 -19 0 -25z m683 -43 c0 5 11 -2
25 -15 14 -13 24 -29 21 -36 -2 -6 0 -16 6 -22 8 -8 7 -16 -2 -27 -11 -13 -16
-13 -29 -3 -9 7 -26 19 -38 26 -19 10 -23 10 -23 -2 0 -8 9 -17 19 -21 22 -7
46 -33 38 -41 -6 -6 -43 13 -65 34 -8 7 -11 19 -8 28 3 8 2 12 -4 9 -15 -10
-12 -46 7 -67 24 -26 -2 -23 -29 5 -13 12 -26 21 -30 20 -17 -6 -6 26 23 65
17 24 39 42 50 42 13 0 17 5 13 18 -5 14 -3 14 10 -2 9 -11 16 -16 16 -11z
m-475 7 c-16 -12 -16 -32 1 -32 8 0 12 5 9 10 -3 6 -1 10 4 10 6 0 11 -2 11
-4 0 -2 3 -11 6 -19 3 -10 -3 -20 -18 -28 -21 -11 -22 -11 -9 4 12 15 11 17
-7 17 -11 0 -25 6 -31 14 -10 11 -8 17 6 25 21 12 44 15 28 3z m-205 -86 c14
-18 14 -18 -7 -6 -12 8 -19 18 -16 23 3 4 6 7 7 5 1 -2 8 -12 16 -22z m129 -3
c10 -17 10 -16 11 2 1 11 4 15 6 8 3 -7 12 -9 20 -6 16 6 17 -2 4 -32 -8 -19
-9 -19 -9 -1 -1 19 -1 19 -14 1 -10 -12 -16 -14 -21 -7 -4 7 -13 12 -19 12 -7
0 -6 -4 3 -10 13 -8 12 -10 -2 -10 -13 0 -18 8 -18 30 0 34 23 41 39 13z m161
-16 c0 -4 0 -14 0 -23 0 -8 -5 -12 -10 -9 -6 4 -7 12 -3 18 4 7 0 6 -10 -2 -9
-7 -23 -11 -31 -8 -8 3 -16 2 -18 -3 -2 -5 -9 -10 -17 -12 -13 -3 -24 29 -15
44 6 9 104 4 104 -5z m-292 -32 c2 -1 -5 -6 -15 -9 -9 -4 -14 -4 -10 0 4 4 -1
13 -11 21 -15 12 -14 13 8 2 14 -6 26 -13 28 -14z m17 -26 c11 -16 1 -19 -13
-3 -7 8 -8 14 -3 14 5 0 13 -5 16 -11z m1210 2 c-3 -5 -1 -12 5 -16 13 -8 13
-45 -1 -45 -5 0 -8 4 -5 9 3 5 -1 14 -9 21 -20 16 -19 40 1 40 8 0 13 -4 9 -9z
m-58 -47 c3 -10 8 -12 12 -5 4 6 11 3 19 -9 7 -12 8 -21 2 -25 -6 -3 -10 0
-10 7 0 9 -3 10 -8 2 -11 -18 -52 2 -52 26 0 24 28 27 37 4z"/>
<path d="M994 2226 c-14 -38 20 -47 60 -15 19 15 24 16 20 5 -3 -9 -1 -16 6
-16 6 0 10 7 8 17 -4 22 -86 31 -94 9z"/>
<path d="M677 2093 c-14 -13 -7 -53 9 -53 13 0 14 3 5 14 -6 7 -9 21 -5 30 6
17 2 21 -9 9z"/>
<path d="M687 2013 c-13 -12 -7 -33 8 -33 8 0 15 9 15 20 0 20 -11 26 -23 13z"/>
<path d="M613 1673 c-33 -4 -44 -18 -20 -26 12 -4 67 19 67 28 0 3 -3 4 -7 3
-5 0 -23 -3 -40 -5z"/>
<path d="M378 1203 c-14 -17 -11 -22 39 -70 57 -56 58 -54 5 19 -18 26 -31 52
-27 58 10 16 -1 12 -17 -7z"/>
<path d="M161 1012 c-24 -18 -27 -39 -21 -152 3 -72 17 -116 47 -142 10 -10
56 -28 102 -40 l83 -23 -6 -72 c-3 -40 -19 -137 -35 -215 -16 -79 -32 -172
-35 -208 -4 -36 -9 -86 -12 -113 l-6 -47 375 0 376 1 4 22 4 22 2 -22 1 -23
246 0 c229 0 245 1 240 18 -31 105 -36 170 -39 564 0 25 -5 28 -53 38 -47 10
-113 8 -214 -5 -48 -6 -90 4 -90 21 0 18 -41 34 -89 36 -20 1 -47 10 -61 20
-22 17 -35 19 -97 13 -74 -7 -133 0 -133 15 0 5 10 12 23 16 12 4 24 9 27 13
7 8 93 40 153 57 26 7 54 20 62 28 9 9 23 12 33 9 14 -6 13 -8 -8 -13 -14 -3
-20 -9 -15 -12 6 -3 28 2 49 13 22 10 47 19 55 20 12 0 11 3 -4 9 l-20 9 20 1
c11 1 38 10 60 21 22 11 31 17 20 13 -11 -3 -45 -10 -75 -15 -30 -5 -125 -39
-210 -75 -258 -111 -304 -125 -385 -120 -87 6 -135 16 -201 41 -43 16 -55 26
-72 61 -19 38 -19 45 -7 80 19 52 18 89 -1 108 -8 9 -13 16 -9 16 4 0 0 7 -9
15 -20 20 -49 19 -75 -3z m739 -747 c5 3 6 13 3 23 -3 9 -2 14 2 10 5 -5 9
-21 10 -38 2 -29 1 -29 -17 -14 -10 10 -17 27 -17 38 2 19 2 19 6 -2 2 -12 8
-20 13 -17z m40 0 c0 -8 -4 -15 -10 -15 -5 0 -7 7 -4 15 4 8 8 15 10 15 2 0 4
-7 4 -15z m45 -35 c8 0 15 5 15 11 0 6 -7 9 -15 5 -8 -3 -15 -1 -15 4 0 13 27
13 35 0 3 -5 0 -19 -8 -30 -13 -19 -13 -19 -30 1 -9 10 -17 25 -17 32 0 6 5 4
11 -5 5 -10 17 -18 24 -18z"/>
</g>
</svg>
